<svg width="64" height="64" viewBox="0 0 64 64" xmlns="http://www.w3.org/2000/svg">
  <circle cx="32" cy="32" r="28" fill="#25D366"/>
  <path d="M32 14C22.058 14 14 21.607 14 31.107c0 3.249.94 6.24 2.58 8.857L14 50l10.43-2.899C27.056 48.661 29.454 49 32 49c9.942 0 18-7.607 18-17.107C50 21.607 41.942 14 32 14z" fill="#FFFFFF" opacity="0.92"/>
  <path d="M26.72 24.726c-.384-.862-.78-.882-1.14-.898-.296-.013-.636-.013-.977-.013-.342 0-.896.128-1.363.637-.468.508-1.792 1.75-1.792 4.266 0 2.516 1.835 4.949 2.092 5.291.256.342 3.44 5.387 8.396 7.34 4.15 1.633 4.99 1.309 5.89 1.225.9-.085 2.885-1.17 3.29-2.3.405-1.132.405-2.101.29-2.3-.128-.213-.47-.342-.977-.598-.508-.256-3.005-1.48-3.47-1.648-.466-.17-.805-.256-1.144.255-.34.512-1.313 1.648-1.61 1.984-.298.342-.597.384-1.105.128-.51-.256-2.154-.794-4.103-2.53-1.517-1.345-2.54-3.006-2.839-3.517-.298-.512-.032-.787.224-1.042.23-.229.512-.597.767-.896.256-.299.341-.512.512-.854.17-.342.085-.64-.043-.897-.127-.256-1.126-2.807-1.57-3.906z" fill="#25D366"/>
</svg>
